<svg id="Layer_1" enable-background="new 0 0 800 800" viewBox="0 0 800 800" xmlns="http://www.w3.org/2000/svg"><g>
<path d="m400 66.7h-111.1c-61.4 0-111.1 49.7-111.1 111.1s49.7 111.1 111.1 111.1h111.1z" fill="#FF3737"/>
<path d="m400 288.9h-111.1c-61.4 0-111.1 49.7-111.1 111.1s49.7 111.1 111.1 111.1h111.1z" fill="#a4a9b7"/>
<path d="m622.2 400c0 61.4-49.7 111.1-111.1 111.1s-111.1-49.7-111.1-111.1 49.7-111.1 111.1-111.1 111.1 49.7 111.1 111.1z" fill="#1c274c"/>
<path d="m288.9 511.1h111.1v111.1c0 61.4-49.7 111.1-111.1 111.1s-111.1-49.7-111.1-111.1c0-61.3 49.7-111.1 111.1-111.1z" fill="#d2d4db"/>
<path d="m400 66.7h111.1c61.4 0 111.1 49.7 111.1 111.1s-49.7 111.1-111.1 111.1h-111.1z" fill="#495270"/></g></svg>