<svg id="Layer_2" height="512" viewBox="0 0 2010 2010" width="512" xmlns="http://www.w3.org/2000/svg" data-name="Layer 2"><path d="m1433 1746.07h-856a221.92 221.92 0 0 1 -221.92-221.92v-1038.3a221.92 221.92 0 0 1 221.92-221.92h646l432 475.1v785.12a221.92 221.92 0 0 1 -222 221.92z" fill="#ececed"/><path d="m1329.38 739h325.53l-431.91-475.07v368.68a106.43 106.43 0 0 0 106.38 106.39z" fill="#b5b1b8"/><path d="m1005 1353.47h-148.89a78.23 78.23 0 0 1 -60.73-28.85c-82.93-102.07-11.38-217.17 86.62-217.17h123z" fill="#af83c8"/><path d="m878.93 1596.29c-105.71-2.6-178.77-139.2-55.35-246h181.42v121.84c0 69.33-56.77 125.87-126.07 124.16z" fill="#7cb75e"/><path d="m1005 1111.79h-148.89a78.24 78.24 0 0 1 -60.73-28.86c-82.93-102.06-11.38-217.16 86.62-217.16h123z" fill="#ec4d6b"/><path d="m1005 865.77h123c98 0 169.54 115.1 86.61 217.16a78.24 78.24 0 0 1 -60.73 28.86h-148.88z" fill="#f07118"/><path d="m1126.36 1351.33c-67.06 0-121.63-53.6-121.63-119.47s54.57-119.48 121.63-119.48 121.64 53.62 121.64 119.48-54.57 119.47-121.64 119.47z" fill="#49bef2"/></svg>